<svg width="73" height="73" viewBox="0 0 73 73" fill="none" xmlns="http://www.w3.org/2000/svg">
<g clip-path="url(#clip0_107_72891)">
<path d="M56.2335 40.7228C54.235 30.6652 63.7814 24.7665 63.7814 24.7665C63.7814 24.7665 60.062 19.3854 53.8111 18.0011C47.5633 16.6137 44.4363 18.3471 41.3154 19.6472C38.1915 20.9504 36.6327 20.9504 36.6327 20.9504C32.1246 20.9504 28.8291 16.1773 20.24 18.3503C14.3227 19.8436 8.09348 26.6745 6.96801 34.8273C5.84253 42.9831 8.27126 53.3899 12.954 61.4554C17.6367 69.5271 22.4068 72.5605 25.7925 72.6478C29.1783 72.732 32.5579 70.2223 36.6327 69.6112C40.7107 69.0063 43.2204 71.0891 47.2203 72.2145C51.2046 73.337 52.6014 72.2956 57.1906 68.3922C61.7922 64.4888 65.9575 53.2933 65.9575 53.2933C65.9575 53.2933 58.2319 50.7866 56.2335 40.7228Z" fill="#1A3453"/>
<path d="M47.3881 11.4943C51.8151 6.98318 50.3156 -0.000488281 50.3156 -0.000488281C50.3156 -0.000488281 44.099 1.09073 39.9337 5.42425C35.7716 9.76094 36.4606 16.6105 36.4606 16.6105C36.4606 16.6105 42.9609 16.0026 47.3881 11.4943Z" fill="#1A3453"/>
</g>
<defs>
<clipPath id="clip0_107_72891">
<rect width="72.6503" height="72.6503" fill="white"/>
</clipPath>
</defs>
</svg>
