<svg width="73" height="73" viewBox="0 0 73 73" fill="none" xmlns="http://www.w3.org/2000/svg">
<g clip-path="url(#clip0_107_72854)">
<path d="M36.2607 22.9505L21.1826 49.1031H21.14L29.8717 59.7515L10.2787 67.9721C9.89524 67.7592 9.59708 67.461 9.42685 67.1629L0.226441 50.1253C-0.242091 49.1881 0.141396 48.4642 0.269035 48.0382L24.931 5.44445C25.1012 5.18889 25.3568 4.93333 25.6977 4.72021H25.7403L38.3905 8.63899L36.2607 22.9505Z" fill="#59C36A"/>
<path d="M72.6502 49.1035L55.5701 59.752L51.5237 49.1035L36.2609 22.9509L25.7402 4.72049C26.0381 4.50752 26.4216 4.37988 26.7625 4.37988H45.9012C46.3272 4.50752 47.1791 4.46493 47.7327 5.44473L72.3946 48.0385C72.5649 48.3368 72.6502 48.72 72.6502 49.1035Z" fill="#FFDA2D"/>
<path d="M47.7335 5.44619C47.1801 4.46639 46.3281 4.50899 45.902 4.38135H36.2617V22.9522L51.5245 49.1048L55.5709 59.7533L72.651 49.1048C72.651 48.7214 72.5657 48.3382 72.3955 48.04L47.7335 5.44619Z" fill="#FDBF00"/>
<path d="M72.6489 49.104C72.6489 49.4872 72.5635 49.8707 72.4359 50.1263L63.2355 67.1638C62.8946 67.7175 62.0856 68.2712 61.3614 68.2712H11.2996C10.9587 68.2712 10.5754 68.1433 10.2773 67.9731L21.1388 49.104H72.6489Z" fill="#4086F4"/>
<path d="M36.2617 68.2712H61.3637C62.0879 68.2712 62.897 67.7175 63.2378 67.1638L72.4382 50.1263C72.5658 49.8707 72.6512 49.4872 72.6512 49.104H36.2619V68.2712H36.2617Z" fill="#4175DF"/>
</g>
<defs>
<clipPath id="clip0_107_72854">
<rect width="72.6503" height="72.6503" fill="white"/>
</clipPath>
</defs>
</svg>
