<svg width="26" height="21" viewBox="0 0 26 21" fill="none" xmlns="http://www.w3.org/2000/svg">
<g clip-path="url(#clip0_9_23297)">
<path d="M0 1.65939V6.39706C0 7.84001 1.75822 8.60958 2.83268 7.59952L7.96081 2.86184C9.08412 1.82773 8.35153 0 6.81309 0H1.68496C0.75701 0 0 0.745523 0 1.65939Z" fill="white"/>
<path d="M24.273 0H19.1449C17.6308 0 16.8738 1.82773 17.9971 2.86184L23.1253 7.59952C24.1997 8.58553 25.958 7.84001 25.958 6.39706V1.65939C25.958 0.745523 25.2009 0 24.273 0Z" fill="white"/>
<path d="M14.139 11.5676L23.1254 19.8886C24.1999 20.8746 25.9581 20.1291 25.9581 18.6862V13.9004C25.9581 13.4435 25.7628 13.0106 25.4209 12.6979L14.139 2.23657C13.4797 1.63534 12.4785 1.63534 11.8191 2.23657L0.537233 12.6979C0.195357 13.0106 0 13.4435 0 13.9004V18.6862C0 20.1291 1.75822 20.8987 2.83268 19.8886L11.8191 11.5676C12.4785 10.9664 13.4797 10.9664 14.139 11.5676Z" fill="white"/>
</g>
<defs>
<clipPath id="clip0_9_23297">
<rect width="25.9581" height="20.3455" fill="white"/>
</clipPath>
</defs>
</svg>
